<svg viewBox="0 0 268 68" fill="none" xmlns="http://www.w3.org/2000/svg">
<path d="M0.881878 23.56C3.08652 22.5312 5.29113 21.2084 7.64276 20.3265C40.5655 10.0382 74.2231 3.13029 108.616 1.07261C114.201 0.778665 120.08 0.778665 125.518 1.51355C134.777 2.83634 137.717 9.59725 131.838 17.24C126.253 24.5888 119.786 31.3498 113.76 38.5516C110.82 42.0791 107.587 45.6065 108.616 51.9265C112.143 52.2204 115.67 53.1023 119.198 53.1023C126.841 52.8083 134.483 52.5144 142.126 51.3386C171.375 47.0763 200.77 42.667 231.635 37.9637C221.2 31.0558 207.972 34.2893 200.182 25.6177C200.329 24.8828 200.476 24.1479 200.77 23.2661C203.268 23.1191 205.767 22.3842 208.119 22.9721C225.315 26.3526 242.658 29.88 260.001 33.4074C263.676 34.1423 268.085 35.3181 267.791 39.7274C267.644 42.52 265.586 45.7534 263.382 47.9581C257.65 53.3962 251.33 58.5404 245.304 63.6846C243.687 65.0074 242.217 66.4771 240.454 67.0651C238.396 67.6529 236.338 67.065 234.133 66.9181C234.28 64.7134 233.546 61.9209 234.574 60.5981C236.926 57.0706 240.16 54.1311 243.246 51.0446C244.275 50.0158 245.304 48.693 248.096 45.9004C238.102 47.6641 230.165 48.84 222.375 50.1628C196.655 54.4251 171.081 58.8344 145.36 62.8027C136.835 63.9785 128.163 64.4195 119.492 64.5664C115.523 64.7134 111.555 63.9785 107.587 62.9497C98.9151 60.4511 94.9468 53.5432 98.3273 45.1656C101.12 38.5516 105.382 32.5256 109.644 26.4995C113.025 21.6493 117.287 17.681 122.725 11.361C116.258 11.361 112.143 11.067 107.881 11.214C80.6901 12.2428 54.2343 16.6521 27.6315 22.0902C21.0176 23.413 14.5506 24.5888 7.9367 25.6177C5.58508 25.9116 3.23349 25.3237 0.734884 25.1768C1.02885 24.8828 0.881868 24.1479 0.881878 23.56Z" fill="url(#paint0_linear_257868_87)"/>
<defs>
<linearGradient id="paint0_linear_257868_87" x1="271" y1="32" x2="4.02709e-06" y2="32" gradientUnits="userSpaceOnUse">
<stop stop-color="#F2AE47"/>
<stop offset="0.855" stop-color="#3361CC"/>
</linearGradient>
</defs>
</svg>
