<svg width="500" height="508" viewBox="0 0 500 508" fill="none" xmlns="http://www.w3.org/2000/svg">
<g clip-path="url(#clip0_257728_541)">
<path d="M237.086 2.46656C244.807 -0.809811 254.316 -0.822967 262.052 2.43204L486.507 96.8624C503.276 103.918 503.322 121.684 486.588 128.785L262.024 224.087C254.303 227.364 244.797 227.378 237.06 224.122L12.6049 129.692C-4.16521 122.637 -4.21067 104.871 12.5232 97.7692L237.086 2.46656Z" fill="#3361CC"/>
<path d="M255.521 420.647C252.864 425.257 246.245 425.257 243.588 420.647L207.031 357.214C204.365 352.592 207.683 346.803 212.997 346.803H286.11C291.424 346.803 294.743 352.592 292.078 357.214L255.521 420.647Z" fill="#3361CC"/>
<path d="M152.505 346.802C179.304 346.802 201.03 324.955 201.03 298.005C201.03 271.056 179.304 249.209 152.505 249.209C125.706 249.209 103.98 271.056 103.98 298.005C103.98 324.955 125.706 346.802 152.505 346.802Z" fill="#3361CC"/>
<path d="M346.604 346.802C373.403 346.802 395.128 324.955 395.128 298.005C395.128 271.056 373.403 249.209 346.604 249.209C319.804 249.209 298.079 271.056 298.079 298.005C298.079 324.955 319.804 346.802 346.604 346.802Z" fill="#3361CC"/>
<path d="M449.802 289.293C458.848 289.293 466.248 296.679 465.564 305.75C461.667 357.505 439.484 406.372 402.734 443.33C362.109 484.183 307.009 507.133 249.555 507.133C192.102 507.133 137.002 484.183 96.3758 443.33C59.6257 406.372 37.4432 357.505 33.5457 305.752C32.8624 296.679 40.2613 289.293 49.3088 289.293C58.3563 289.293 65.6148 296.684 66.4196 305.745C70.2388 348.751 88.9398 389.256 119.543 420.033C154.025 454.707 200.791 474.186 249.555 474.186C298.319 474.186 345.086 454.707 379.567 420.033C410.171 389.256 428.871 348.751 432.691 305.745C433.495 296.684 440.753 289.293 449.802 289.293Z" fill="#3361CC"/>
<path d="M465.517 233.195V129.167C465.517 120.071 458.184 112.696 449.138 112.696C440.092 112.696 432.759 120.071 432.759 129.167V233.195C432.759 242.291 440.092 249.666 449.138 249.666C458.184 249.666 465.517 242.291 465.517 233.195Z" fill="#3361CC"/>
</g>
<defs>
<clipPath id="clip0_257728_541">
<rect width="500" height="508" fill="white"/>
</clipPath>
</defs>
</svg>
