<svg width="290" height="293" viewBox="0 0 290 293" fill="none" xmlns="http://www.w3.org/2000/svg">
<path d="M137.51 1.42264C141.988 -0.467076 147.503 -0.474664 151.99 1.40273L282.174 55.8675C291.9 59.9368 291.927 70.1836 282.221 74.2796L151.974 129.247C147.496 131.137 141.982 131.145 137.495 129.267L7.31082 74.8026C-2.41582 70.7333 -2.44219 60.4866 7.26343 56.3905L137.51 1.42264Z" fill="#294EA3"/>
<path d="M148.202 242.617C146.661 245.276 142.822 245.276 141.281 242.617L120.078 206.031C118.532 203.365 120.456 200.026 123.538 200.026L165.944 200.026C169.026 200.026 170.951 203.365 169.405 206.031L148.202 242.617Z" fill="#294EA3"/>
<circle cx="88.4529" cy="171.881" r="28.1443" fill="#294EA3"/>
<circle cx="201.03" cy="171.881" r="28.1443" fill="#294EA3"/>
<path d="M260.885 166.856C266.132 166.856 270.424 171.116 270.027 176.348C267.767 206.199 254.901 234.384 233.586 255.7C210.023 279.263 178.065 292.5 144.742 292.5C111.419 292.5 79.4609 279.263 55.898 255.7C34.5829 234.384 21.7171 206.199 19.4565 176.349C19.0602 171.116 23.3516 166.856 28.5991 166.856C33.8467 166.856 38.0566 171.119 38.5234 176.345C40.7385 201.15 51.5851 224.512 69.3352 242.263C89.3343 262.262 116.459 273.497 144.742 273.497C173.025 273.497 200.15 262.262 220.149 242.263C237.899 224.512 248.745 201.15 250.961 176.345C251.427 171.119 255.637 166.856 260.885 166.856Z" fill="#294EA3"/>
<rect x="270" y="65" width="79" height="19" rx="9.5" transform="rotate(90 270 65)" fill="#294EA3"/>
</svg>
