<svg width="1060" height="291" viewBox="0 0 1060 291" fill="none" xmlns="http://www.w3.org/2000/svg">
<path d="M136.805 1.41535C141.26 -0.464681 146.746 -0.47223 151.21 1.39553L280.727 55.581C290.403 59.6294 290.43 69.8236 280.774 73.8987L151.195 128.585C146.74 130.465 141.254 130.472 136.79 128.604L7.27333 74.419C-2.40343 70.3706 -2.42967 60.1764 7.22619 56.1013L136.805 1.41535Z" fill="#294EA3"/>
<path d="M147.461 241.342C145.92 244.001 142.08 244.001 140.539 241.342L119.481 205.006C117.935 202.339 119.859 199 122.941 199L165.059 199C168.141 199 170.065 202.339 168.519 205.006L147.461 241.342Z" fill="#294EA3"/>
<circle cx="88" cy="171" r="28" fill="#294EA3"/>
<circle cx="200" cy="171" r="28" fill="#294EA3"/>
<path d="M261.75 166C265.754 166 269.022 169.249 268.79 173.246C267.02 203.756 254.117 232.66 232.388 254.388C208.946 277.83 177.152 291 144 291C110.848 291 79.0537 277.83 55.6117 254.388C33.8834 232.66 20.9805 203.756 19.21 173.246C18.9781 169.249 22.2457 166 26.2496 166C30.2534 166 33.4743 169.25 33.7367 173.245C35.4875 199.906 46.8555 225.127 65.8641 244.136C86.587 264.859 114.693 276.501 144 276.501C173.307 276.501 201.413 264.859 222.136 244.136C241.145 225.127 252.513 199.906 254.263 173.245C254.526 169.25 257.747 166 261.75 166Z" fill="#294EA3"/>
<rect x="269" y="65" width="78" height="14" rx="7" transform="rotate(90 269 65)" fill="#294EA3"/>
<path d="M421.616 131.056C418.8 131.056 415.888 130.8 412.88 130.288C409.936 129.776 407.248 128.912 404.816 127.696C403.536 127.056 402.608 126.256 402.032 125.296C401.52 124.272 401.296 123.248 401.36 122.224C401.424 121.2 401.744 120.272 402.32 119.44C402.96 118.608 403.76 118.064 404.72 117.808C405.744 117.488 406.864 117.584 408.08 118.096C410.704 119.184 413.104 119.952 415.28 120.4C417.456 120.848 419.6 121.072 421.712 121.072C424.464 121.072 426.448 120.656 427.664 119.824C428.944 118.928 429.584 117.776 429.584 116.368C429.584 115.088 429.168 114.128 428.336 113.488C427.504 112.848 426.288 112.4 424.688 112.144L414.608 110.32C410.64 109.616 407.568 108.176 405.392 106C403.28 103.76 402.224 100.912 402.224 97.456C402.224 94.256 403.12 91.504 404.912 89.2C406.704 86.832 409.168 85.04 412.304 83.824C415.504 82.544 419.12 81.904 423.152 81.904C426.032 81.904 428.688 82.16 431.12 82.672C433.552 83.184 435.888 84.016 438.128 85.168C439.28 85.744 440.08 86.512 440.528 87.472C441.04 88.432 441.2 89.424 441.008 90.448C440.88 91.472 440.496 92.4 439.856 93.232C439.216 94.064 438.384 94.608 437.36 94.864C436.4 95.12 435.28 94.992 434 94.48C431.952 93.52 430.064 92.848 428.336 92.464C426.608 92.016 424.944 91.792 423.344 91.792C420.464 91.792 418.384 92.272 417.104 93.232C415.824 94.128 415.184 95.28 415.184 96.688C415.184 97.776 415.536 98.704 416.24 99.472C417.008 100.176 418.16 100.656 419.696 100.912L429.776 102.736C433.936 103.44 437.104 104.848 439.28 106.96C441.456 109.008 442.544 111.824 442.544 115.408C442.544 120.272 440.624 124.112 436.784 126.928C433.008 129.68 427.952 131.056 421.616 131.056ZM473.485 131.056C469.069 131.056 465.357 130.32 462.349 128.848C459.405 127.376 457.197 125.232 455.725 122.416C454.317 119.6 453.613 116.048 453.613 111.76V93.712H449.581C447.789 93.712 446.381 93.232 445.357 92.272C444.397 91.312 443.917 90 443.917 88.336C443.917 86.544 444.397 85.2 445.357 84.304C446.381 83.344 447.789 82.864 449.581 82.864H453.613V75.568C453.613 73.136 454.253 71.312 455.533 70.096C456.813 68.816 458.605 68.176 460.909 68.176C463.277 68.176 465.069 68.816 466.285 70.096C467.501 71.312 468.109 73.136 468.109 75.568V82.864H477.229C479.021 82.864 480.397 83.344 481.357 84.304C482.317 85.2 482.797 86.544 482.797 88.336C482.797 90 482.317 91.312 481.357 92.272C480.397 93.232 479.021 93.712 477.229 93.712H468.109V111.184C468.109 113.872 468.717 115.888 469.933 117.232C471.213 118.576 473.229 119.248 475.981 119.248C476.941 119.248 477.837 119.152 478.669 118.96C479.501 118.768 480.269 118.64 480.973 118.576C481.869 118.512 482.605 118.8 483.181 119.44C483.757 120.016 484.045 121.328 484.045 123.376C484.045 124.912 483.789 126.256 483.277 127.408C482.765 128.56 481.869 129.392 480.589 129.904C479.757 130.224 478.605 130.48 477.133 130.672C475.725 130.928 474.509 131.056 473.485 131.056ZM506.538 131.056C502.57 131.056 499.274 130.32 496.65 128.848C494.026 127.376 492.074 125.168 490.794 122.224C489.578 119.216 488.97 115.504 488.97 111.088V89.392C488.97 86.96 489.578 85.136 490.794 83.92C492.074 82.704 493.866 82.096 496.17 82.096C498.474 82.096 500.266 82.704 501.546 83.92C502.826 85.136 503.466 86.96 503.466 89.392V111.472C503.466 114.288 504.042 116.4 505.194 117.808C506.346 119.152 508.17 119.824 510.666 119.824C513.418 119.824 515.658 118.864 517.386 116.944C519.178 114.96 520.074 112.368 520.074 109.168V89.392C520.074 86.96 520.682 85.136 521.898 83.92C523.178 82.704 524.97 82.096 527.274 82.096C529.642 82.096 531.434 82.704 532.65 83.92C533.93 85.136 534.57 86.96 534.57 89.392V123.472C534.57 128.4 532.234 130.864 527.562 130.864C525.258 130.864 523.498 130.224 522.282 128.944C521.066 127.664 520.458 125.84 520.458 123.472V117.04L521.898 120.784C520.49 124.048 518.474 126.576 515.85 128.368C513.226 130.16 510.122 131.056 506.538 131.056ZM564.123 131.056C560.027 131.056 556.411 130.064 553.275 128.08C550.203 126.096 547.803 123.248 546.075 119.536C544.347 115.824 543.483 111.44 543.483 106.384C543.483 101.328 544.347 96.976 546.075 93.328C547.803 89.68 550.203 86.864 553.275 84.88C556.411 82.896 560.027 81.904 564.123 81.904C567.835 81.904 571.099 82.8 573.915 84.592C576.795 86.384 578.747 88.72 579.771 91.6H578.715V68.848C578.715 66.416 579.323 64.592 580.539 63.376C581.755 62.096 583.547 61.456 585.915 61.456C588.219 61.456 590.011 62.096 591.291 63.376C592.571 64.592 593.211 66.416 593.211 68.848V123.472C593.211 125.84 592.571 127.664 591.291 128.944C590.075 130.224 588.315 130.864 586.011 130.864C583.707 130.864 581.915 130.224 580.635 128.944C579.419 127.664 578.811 125.84 578.811 123.472V116.944L579.867 120.688C578.971 123.824 577.051 126.352 574.107 128.272C571.227 130.128 567.899 131.056 564.123 131.056ZM568.443 120.208C570.555 120.208 572.379 119.696 573.915 118.672C575.451 117.648 576.667 116.144 577.563 114.16C578.459 112.112 578.907 109.52 578.907 106.384C578.907 101.712 577.947 98.288 576.027 96.112C574.107 93.872 571.579 92.752 568.443 92.752C566.395 92.752 564.571 93.232 562.971 94.192C561.435 95.152 560.219 96.656 559.323 98.704C558.491 100.688 558.075 103.248 558.075 106.384C558.075 111.056 559.035 114.544 560.955 116.848C562.875 119.088 565.371 120.208 568.443 120.208ZM611.677 130.768C609.309 130.768 607.485 130.096 606.205 128.752C604.989 127.344 604.381 125.392 604.381 122.896V90.064C604.381 87.504 604.989 85.552 606.205 84.208C607.485 82.8 609.309 82.096 611.677 82.096C613.981 82.096 615.741 82.8 616.957 84.208C618.237 85.552 618.877 87.504 618.877 90.064V122.896C618.877 125.392 618.269 127.344 617.053 128.752C615.837 130.096 614.045 130.768 611.677 130.768ZM611.677 74.224C608.989 74.224 606.909 73.616 605.437 72.4C604.029 71.12 603.325 69.328 603.325 67.024C603.325 64.656 604.029 62.864 605.437 61.648C606.909 60.368 608.989 59.728 611.677 59.728C614.365 59.728 616.413 60.368 617.821 61.648C619.229 62.864 619.933 64.656 619.933 67.024C619.933 69.328 619.229 71.12 617.821 72.4C616.413 73.616 614.365 74.224 611.677 74.224ZM646.004 131.056C642.548 131.056 639.444 130.384 636.692 129.04C633.94 127.696 631.796 125.872 630.26 123.568C628.724 121.264 627.956 118.672 627.956 115.792C627.956 112.336 628.852 109.616 630.644 107.632C632.436 105.584 635.348 104.144 639.38 103.312C643.412 102.416 648.756 101.968 655.412 101.968H660.5V109.456H655.508C652.244 109.456 649.588 109.648 647.54 110.032C645.556 110.352 644.116 110.928 643.22 111.76C642.388 112.592 641.972 113.744 641.972 115.216C641.972 117.008 642.58 118.48 643.796 119.632C645.076 120.784 646.9 121.36 649.268 121.36C651.124 121.36 652.756 120.944 654.164 120.112C655.636 119.216 656.788 118.032 657.62 116.56C658.452 115.024 658.868 113.296 658.868 111.376V100.336C658.868 97.52 658.228 95.536 656.948 94.384C655.668 93.168 653.492 92.56 650.42 92.56C648.692 92.56 646.804 92.784 644.756 93.232C642.772 93.616 640.564 94.288 638.132 95.248C636.724 95.888 635.476 96.048 634.388 95.728C633.3 95.344 632.468 94.704 631.892 93.808C631.316 92.848 631.028 91.824 631.028 90.736C631.028 89.584 631.348 88.496 631.988 87.472C632.628 86.384 633.684 85.584 635.156 85.072C638.164 83.856 640.98 83.024 643.604 82.576C646.292 82.128 648.756 81.904 650.996 81.904C655.924 81.904 659.956 82.64 663.092 84.112C666.292 85.52 668.692 87.728 670.292 90.736C671.892 93.68 672.692 97.488 672.692 102.16V123.472C672.692 125.84 672.116 127.664 670.964 128.944C669.812 130.224 668.148 130.864 665.972 130.864C663.796 130.864 662.1 130.224 660.884 128.944C659.732 127.664 659.156 125.84 659.156 123.472V119.92L659.828 120.496C659.444 122.672 658.612 124.56 657.332 126.16C656.116 127.696 654.548 128.912 652.628 129.808C650.708 130.64 648.5 131.056 646.004 131.056ZM421.904 246.056C417.808 246.056 414.192 245.064 411.056 243.08C407.984 241.096 405.584 238.248 403.856 234.536C402.128 230.824 401.264 226.44 401.264 221.384C401.264 216.328 402.128 211.976 403.856 208.328C405.584 204.68 407.984 201.864 411.056 199.88C414.192 197.896 417.808 196.904 421.904 196.904C425.616 196.904 428.88 197.8 431.696 199.592C434.576 201.384 436.528 203.72 437.552 206.6H436.496V183.848C436.496 181.416 437.104 179.592 438.32 178.376C439.536 177.096 441.328 176.456 443.696 176.456C446 176.456 447.792 177.096 449.072 178.376C450.352 179.592 450.992 181.416 450.992 183.848V238.472C450.992 240.84 450.352 242.664 449.072 243.944C447.856 245.224 446.096 245.864 443.792 245.864C441.488 245.864 439.696 245.224 438.416 243.944C437.2 242.664 436.592 240.84 436.592 238.472V231.944L437.648 235.688C436.752 238.824 434.832 241.352 431.888 243.272C429.008 245.128 425.68 246.056 421.904 246.056ZM426.224 235.208C428.336 235.208 430.16 234.696 431.696 233.672C433.232 232.648 434.448 231.144 435.344 229.16C436.24 227.112 436.688 224.52 436.688 221.384C436.688 216.712 435.728 213.288 433.808 211.112C431.888 208.872 429.36 207.752 426.224 207.752C424.176 207.752 422.352 208.232 420.752 209.192C419.216 210.152 418 211.656 417.104 213.704C416.272 215.688 415.856 218.248 415.856 221.384C415.856 226.056 416.816 229.544 418.736 231.848C420.656 234.088 423.152 235.208 426.224 235.208ZM479.154 246.056C473.458 246.056 469.202 244.488 466.386 241.352C463.57 238.152 462.162 233.416 462.162 227.144V183.848C462.162 181.416 462.77 179.592 463.986 178.376C465.266 177.096 467.09 176.456 469.458 176.456C471.762 176.456 473.522 177.096 474.738 178.376C476.018 179.592 476.658 181.416 476.658 183.848V226.568C476.658 229.192 477.202 231.144 478.29 232.424C479.442 233.64 480.946 234.248 482.802 234.248C483.314 234.248 483.794 234.216 484.242 234.152C484.69 234.088 485.17 234.056 485.682 234.056C486.706 233.928 487.41 234.248 487.794 235.016C488.242 235.72 488.466 237.16 488.466 239.336C488.466 241.256 488.082 242.728 487.314 243.752C486.546 244.712 485.362 245.352 483.762 245.672C483.122 245.736 482.386 245.8 481.554 245.864C480.722 245.992 479.922 246.056 479.154 246.056ZM510.067 246.056C506.611 246.056 503.507 245.384 500.755 244.04C498.003 242.696 495.859 240.872 494.323 238.568C492.787 236.264 492.019 233.672 492.019 230.792C492.019 227.336 492.915 224.616 494.707 222.632C496.499 220.584 499.411 219.144 503.443 218.312C507.475 217.416 512.819 216.968 519.475 216.968H524.563V224.456H519.571C516.307 224.456 513.651 224.648 511.603 225.032C509.619 225.352 508.179 225.928 507.283 226.76C506.451 227.592 506.035 228.744 506.035 230.216C506.035 232.008 506.643 233.48 507.859 234.632C509.139 235.784 510.963 236.36 513.331 236.36C515.187 236.36 516.819 235.944 518.227 235.112C519.699 234.216 520.851 233.032 521.683 231.56C522.515 230.024 522.931 228.296 522.931 226.376V215.336C522.931 212.52 522.291 210.536 521.011 209.384C519.731 208.168 517.555 207.56 514.483 207.56C512.755 207.56 510.867 207.784 508.819 208.232C506.835 208.616 504.627 209.288 502.195 210.248C500.787 210.888 499.539 211.048 498.451 210.728C497.363 210.344 496.531 209.704 495.955 208.808C495.379 207.848 495.091 206.824 495.091 205.736C495.091 204.584 495.411 203.496 496.051 202.472C496.691 201.384 497.747 200.584 499.219 200.072C502.227 198.856 505.043 198.024 507.667 197.576C510.355 197.128 512.819 196.904 515.059 196.904C519.987 196.904 524.019 197.64 527.155 199.112C530.355 200.52 532.755 202.728 534.355 205.736C535.955 208.68 536.755 212.488 536.755 217.16V238.472C536.755 240.84 536.179 242.664 535.027 243.944C533.875 245.224 532.211 245.864 530.035 245.864C527.859 245.864 526.163 245.224 524.947 243.944C523.795 242.664 523.219 240.84 523.219 238.472V234.92L523.891 235.496C523.507 237.672 522.675 239.56 521.395 241.16C520.179 242.696 518.611 243.912 516.691 244.808C514.771 245.64 512.563 246.056 510.067 246.056ZM581.677 245.864C579.309 245.864 577.485 245.224 576.205 243.944C574.989 242.664 574.381 240.84 574.381 238.472V204.392C574.381 202.024 574.989 200.232 576.205 199.016C577.485 197.736 579.245 197.096 581.484 197.096C583.789 197.096 585.549 197.736 586.765 199.016C587.981 200.232 588.589 202.024 588.589 204.392V209.864L587.533 206.696C589.005 203.56 591.181 201.16 594.061 199.496C597.005 197.768 600.333 196.904 604.045 196.904C607.821 196.904 610.925 197.64 613.357 199.112C615.789 200.52 617.613 202.696 618.829 205.64C620.045 208.52 620.653 212.2 620.653 216.68V238.472C620.653 240.84 620.013 242.664 618.733 243.944C617.517 245.224 615.725 245.864 613.357 245.864C611.053 245.864 609.261 245.224 607.981 243.944C606.765 242.664 606.157 240.84 606.157 238.472V217.352C606.157 214.088 605.549 211.752 604.333 210.344C603.181 208.872 601.389 208.136 598.957 208.136C595.885 208.136 593.421 209.096 591.565 211.016C589.773 212.936 588.877 215.496 588.877 218.696V238.472C588.877 243.4 586.477 245.864 581.677 245.864ZM647.41 246.056C643.954 246.056 640.85 245.384 638.098 244.04C635.346 242.696 633.202 240.872 631.666 238.568C630.13 236.264 629.362 233.672 629.362 230.792C629.362 227.336 630.258 224.616 632.05 222.632C633.842 220.584 636.754 219.144 640.786 218.312C644.818 217.416 650.162 216.968 656.818 216.968H661.906V224.456H656.914C653.65 224.456 650.994 224.648 648.946 225.032C646.962 225.352 645.522 225.928 644.626 226.76C643.794 227.592 643.378 228.744 643.378 230.216C643.378 232.008 643.986 233.48 645.202 234.632C646.482 235.784 648.306 236.36 650.674 236.36C652.53 236.36 654.162 235.944 655.57 235.112C657.042 234.216 658.194 233.032 659.026 231.56C659.858 230.024 660.274 228.296 660.274 226.376V215.336C660.274 212.52 659.634 210.536 658.354 209.384C657.074 208.168 654.898 207.56 651.826 207.56C650.098 207.56 648.21 207.784 646.162 208.232C644.178 208.616 641.97 209.288 639.538 210.248C638.13 210.888 636.882 211.048 635.794 210.728C634.706 210.344 633.874 209.704 633.298 208.808C632.722 207.848 632.434 206.824 632.434 205.736C632.434 204.584 632.754 203.496 633.394 202.472C634.034 201.384 635.09 200.584 636.562 200.072C639.57 198.856 642.386 198.024 645.01 197.576C647.698 197.128 650.162 196.904 652.402 196.904C657.33 196.904 661.362 197.64 664.498 199.112C667.698 200.52 670.098 202.728 671.698 205.736C673.298 208.68 674.098 212.488 674.098 217.16V238.472C674.098 240.84 673.522 242.664 672.37 243.944C671.218 245.224 669.554 245.864 667.378 245.864C665.202 245.864 663.506 245.224 662.29 243.944C661.138 242.664 660.562 240.84 660.562 238.472V234.92L661.234 235.496C660.85 237.672 660.018 239.56 658.738 241.16C657.522 242.696 655.954 243.912 654.034 244.808C652.114 245.64 649.906 246.056 647.41 246.056ZM702.288 246.056C698.32 246.056 695.024 245.32 692.4 243.848C689.776 242.376 687.824 240.168 686.544 237.224C685.328 234.216 684.72 230.504 684.72 226.088V204.392C684.72 201.96 685.328 200.136 686.544 198.92C687.824 197.704 689.616 197.096 691.92 197.096C694.224 197.096 696.016 197.704 697.296 198.92C698.576 200.136 699.216 201.96 699.216 204.392V226.472C699.216 229.288 699.792 231.4 700.944 232.808C702.096 234.152 703.92 234.824 706.416 234.824C709.168 234.824 711.408 233.864 713.136 231.944C714.928 229.96 715.824 227.368 715.824 224.168V204.392C715.824 201.96 716.432 200.136 717.648 198.92C718.928 197.704 720.72 197.096 723.024 197.096C725.392 197.096 727.184 197.704 728.4 198.92C729.68 200.136 730.32 201.96 730.32 204.392V238.472C730.32 243.4 727.984 245.864 723.312 245.864C721.008 245.864 719.248 245.224 718.032 243.944C716.816 242.664 716.208 240.84 716.208 238.472V232.04L717.648 235.784C716.24 239.048 714.224 241.576 711.6 243.368C708.976 245.16 705.872 246.056 702.288 246.056ZM764.481 246.056C759.361 246.056 754.881 245.064 751.041 243.08C747.265 241.032 744.353 238.152 742.305 234.44C740.257 230.728 739.233 226.344 739.233 221.288C739.233 217.512 739.809 214.12 740.961 211.112C742.113 208.104 743.777 205.544 745.953 203.432C748.193 201.32 750.881 199.72 754.017 198.632C757.153 197.48 760.641 196.904 764.481 196.904C766.465 196.904 768.577 197.16 770.817 197.672C773.057 198.12 775.265 198.92 777.441 200.072C778.721 200.648 779.585 201.48 780.033 202.568C780.545 203.592 780.737 204.68 780.609 205.832C780.481 206.92 780.065 207.912 779.361 208.808C778.721 209.64 777.889 210.216 776.865 210.536C775.841 210.792 774.689 210.6 773.409 209.96C772.193 209.256 770.913 208.744 769.569 208.424C768.289 208.104 767.073 207.944 765.921 207.944C764.001 207.944 762.305 208.264 760.833 208.904C759.361 209.48 758.113 210.344 757.089 211.496C756.129 212.584 755.361 213.96 754.785 215.624C754.273 217.288 754.017 219.208 754.017 221.384C754.017 225.608 755.041 228.936 757.089 231.368C759.201 233.736 762.145 234.92 765.921 234.92C767.073 234.92 768.289 234.792 769.569 234.536C770.849 234.216 772.129 233.704 773.409 233C774.689 232.36 775.841 232.2 776.865 232.52C777.889 232.84 778.689 233.448 779.265 234.344C779.905 235.176 780.257 236.168 780.321 237.32C780.449 238.408 780.257 239.496 779.745 240.584C779.297 241.608 778.465 242.408 777.249 242.984C775.073 244.072 772.897 244.84 770.721 245.288C768.545 245.8 766.465 246.056 764.481 246.056ZM791.413 245C790.005 245 788.821 244.648 787.861 243.944C786.901 243.176 786.261 242.216 785.941 241.064C785.621 239.912 785.621 238.664 785.941 237.32C786.325 235.976 787.061 234.728 788.148 233.576L811.669 205.352V208.712H790.837C789.109 208.712 787.765 208.232 786.805 207.272C785.845 206.312 785.365 205 785.365 203.336C785.365 201.544 785.845 200.2 786.805 199.304C787.765 198.344 789.109 197.864 790.837 197.864H818.581C820.309 197.864 821.685 198.248 822.709 199.016C823.733 199.784 824.405 200.744 824.725 201.896C825.109 202.984 825.141 204.2 824.821 205.544C824.565 206.824 823.893 208.04 822.805 209.192L798.709 237.992V234.248H820.981C824.629 234.248 826.453 236.04 826.453 239.624C826.453 241.352 825.973 242.696 825.013 243.656C824.053 244.552 822.709 245 820.981 245H791.413ZM845.526 263.144C843.862 263.144 842.486 262.696 841.398 261.8C840.31 260.904 839.67 259.72 839.478 258.248C839.286 256.84 839.542 255.336 840.246 253.736L846.678 239.528V245.48L829.686 206.504C829.046 204.84 828.822 203.304 829.014 201.896C829.27 200.424 829.974 199.272 831.126 198.44C832.342 197.544 834.006 197.096 836.118 197.096C837.846 197.096 839.222 197.512 840.246 198.344C841.334 199.112 842.326 200.616 843.222 202.856L854.55 231.656H851.478L863.19 202.76C864.086 200.584 865.078 199.112 866.166 198.344C867.318 197.512 868.854 197.096 870.774 197.096C872.438 197.096 873.75 197.544 874.71 198.44C875.734 199.272 876.342 200.392 876.534 201.8C876.79 203.208 876.534 204.744 875.766 206.408L853.206 257.576C852.246 259.752 851.158 261.224 849.942 261.992C848.79 262.76 847.318 263.144 845.526 263.144ZM905.668 246.056C900.548 246.056 896.068 245.064 892.228 243.08C888.452 241.032 885.54 238.152 883.492 234.44C881.444 230.728 880.42 226.344 880.42 221.288C880.42 217.512 880.996 214.12 882.148 211.112C883.3 208.104 884.964 205.544 887.14 203.432C889.38 201.32 892.068 199.72 895.204 198.632C898.34 197.48 901.828 196.904 905.668 196.904C907.652 196.904 909.764 197.16 912.004 197.672C914.244 198.12 916.452 198.92 918.628 200.072C919.908 200.648 920.772 201.48 921.22 202.568C921.732 203.592 921.924 204.68 921.796 205.832C921.668 206.92 921.252 207.912 920.548 208.808C919.908 209.64 919.076 210.216 918.052 210.536C917.028 210.792 915.876 210.6 914.596 209.96C913.38 209.256 912.1 208.744 910.756 208.424C909.476 208.104 908.26 207.944 907.108 207.944C905.188 207.944 903.492 208.264 902.02 208.904C900.548 209.48 899.3 210.344 898.276 211.496C897.316 212.584 896.548 213.96 895.972 215.624C895.46 217.288 895.204 219.208 895.204 221.384C895.204 225.608 896.228 228.936 898.276 231.368C900.388 233.736 903.332 234.92 907.108 234.92C908.26 234.92 909.476 234.792 910.756 234.536C912.036 234.216 913.316 233.704 914.596 233C915.876 232.36 917.028 232.2 918.052 232.52C919.076 232.84 919.876 233.448 920.452 234.344C921.092 235.176 921.444 236.168 921.508 237.32C921.636 238.408 921.444 239.496 920.932 240.584C920.484 241.608 919.652 242.408 918.436 242.984C916.26 244.072 914.084 244.84 911.908 245.288C909.732 245.8 907.652 246.056 905.668 246.056ZM935.864 245.768C933.496 245.768 931.672 245.096 930.392 243.752C929.176 242.344 928.568 240.392 928.568 237.896V205.064C928.568 202.504 929.176 200.552 930.392 199.208C931.672 197.8 933.496 197.096 935.864 197.096C938.168 197.096 939.928 197.8 941.144 199.208C942.424 200.552 943.064 202.504 943.064 205.064V237.896C943.064 240.392 942.456 242.344 941.24 243.752C940.024 245.096 938.232 245.768 935.864 245.768ZM935.864 189.224C933.176 189.224 931.096 188.616 929.624 187.4C928.216 186.12 927.512 184.328 927.512 182.024C927.512 179.656 928.216 177.864 929.624 176.648C931.096 175.368 933.176 174.728 935.864 174.728C938.552 174.728 940.6 175.368 942.008 176.648C943.416 177.864 944.12 179.656 944.12 182.024C944.12 184.328 943.416 186.12 942.008 187.4C940.6 188.616 938.552 189.224 935.864 189.224ZM978.736 246.056C973.168 246.056 968.368 245.064 964.336 243.08C960.368 241.032 957.296 238.184 955.12 234.536C953.008 230.824 951.952 226.472 951.952 221.48C951.952 216.616 952.976 212.36 955.023 208.712C957.072 205 959.92 202.12 963.568 200.072C967.28 197.96 971.472 196.904 976.144 196.904C979.536 196.904 982.608 197.48 985.36 198.632C988.112 199.72 990.48 201.32 992.464 203.432C994.448 205.48 995.952 208.008 996.976 211.016C998 213.96 998.512 217.256 998.512 220.904C998.512 222.12 998.128 223.048 997.36 223.688C996.592 224.264 995.472 224.552 994 224.552H963.856V217.064H988.048L986.512 218.408C986.512 215.784 986.128 213.608 985.36 211.88C984.592 210.088 983.472 208.744 982 207.848C980.592 206.952 978.832 206.504 976.72 206.504C974.352 206.504 972.336 207.048 970.672 208.136C969.008 209.224 967.728 210.792 966.832 212.84C965.936 214.888 965.488 217.352 965.488 220.232V221C965.488 225.864 966.608 229.448 968.848 231.752C971.152 234.056 974.544 235.208 979.024 235.208C980.56 235.208 982.32 235.016 984.304 234.632C986.288 234.248 988.144 233.64 989.872 232.808C991.344 232.104 992.656 231.88 993.808 232.136C994.96 232.328 995.856 232.84 996.496 233.672C997.136 234.504 997.488 235.464 997.552 236.552C997.68 237.64 997.456 238.728 996.88 239.816C996.304 240.84 995.344 241.704 994 242.408C991.824 243.624 989.36 244.52 986.608 245.096C983.92 245.736 981.296 246.056 978.736 246.056ZM1023.94 246.056C1018.24 246.056 1013.98 244.488 1011.17 241.352C1008.35 238.152 1006.94 233.416 1006.94 227.144V183.848C1006.94 181.416 1007.55 179.592 1008.77 178.376C1010.05 177.096 1011.87 176.456 1014.24 176.456C1016.54 176.456 1018.3 177.096 1019.52 178.376C1020.8 179.592 1021.44 181.416 1021.44 183.848V226.568C1021.44 229.192 1021.98 231.144 1023.07 232.424C1024.22 233.64 1025.73 234.248 1027.58 234.248C1028.1 234.248 1028.58 234.216 1029.02 234.152C1029.47 234.088 1029.95 234.056 1030.46 234.056C1031.49 233.928 1032.19 234.248 1032.58 235.016C1033.02 235.72 1033.25 237.16 1033.25 239.336C1033.25 241.256 1032.86 242.728 1032.1 243.752C1031.33 244.712 1030.14 245.352 1028.54 245.672C1027.9 245.736 1027.17 245.8 1026.34 245.864C1025.5 245.992 1024.7 246.056 1023.94 246.056ZM1046.21 245.768C1043.84 245.768 1042.02 245.096 1040.74 243.752C1039.52 242.344 1038.91 240.392 1038.91 237.896V205.064C1038.91 202.504 1039.52 200.552 1040.74 199.208C1042.02 197.8 1043.84 197.096 1046.21 197.096C1048.51 197.096 1050.27 197.8 1051.49 199.208C1052.77 200.552 1053.41 202.504 1053.41 205.064V237.896C1053.41 240.392 1052.8 242.344 1051.58 243.752C1050.37 245.096 1048.58 245.768 1046.21 245.768ZM1046.21 189.224C1043.52 189.224 1041.44 188.616 1039.97 187.4C1038.56 186.12 1037.86 184.328 1037.86 182.024C1037.86 179.656 1038.56 177.864 1039.97 176.648C1041.44 175.368 1043.52 174.728 1046.21 174.728C1048.9 174.728 1050.94 175.368 1052.35 176.648C1053.76 177.864 1054.46 179.656 1054.46 182.024C1054.46 184.328 1053.76 186.12 1052.35 187.4C1050.94 188.616 1048.9 189.224 1046.21 189.224Z" fill="#294EA3"/>
</svg>
